<?xml version="1.0" encoding="UTF-8"?>
<svg xmlns="http://www.w3.org/2000/svg" viewBox="0 0 903 887" role="img" aria-label="Eastwest halal travels icon">
  <defs>
    <linearGradient id="goldGradient" x1="0%" y1="0%" x2="100%" y2="100%">
      <stop offset="0%" stop-color="#FFB000"/>
      <stop offset="55%" stop-color="#FFC12B"/>
      <stop offset="100%" stop-color="#F7A300"/>
    </linearGradient>
  </defs>
  <g fill="url(#goldGradient)">
    <path d="M 118.0 10.0 L 72.0 83.0 L 36.0 169.0 L 14.0 267.0 L 10.0 357.0 L 22.0 451.0 L 55.0 554.0 L 94.0 627.0 L 153.0 703.0 L 229.0 771.0 L 302.0 816.0 L 394.0 853.0 L 493.0 873.0 L 576.0 876.0 L 676.0 862.0 L 769.0 830.0 L 843.0 786.0 L 882.0 729.0 L 892.0 661.0 L 869.0 586.0 L 818.0 532.0 L 778.0 514.0 L 734.0 508.0 L 542.0 539.0 L 436.0 535.0 L 376.0 518.0 L 325.0 493.0 L 237.0 420.0 L 180.0 339.0 L 143.0 250.0 L 119.0 129.0 Z"/>
    <path d="M 184.0 185.0 L 194.0 227.0 L 207.0 265.0 L 228.0 311.0 L 247.0 343.0 L 270.0 374.0 L 297.0 403.0 L 350.0 444.0 L 386.0 463.0 L 413.0 473.0 L 441.0 480.0 L 482.0 485.0 L 520.0 485.0 L 583.0 478.0 L 603.0 472.0 L 613.0 462.0 L 617.0 454.0 L 619.0 439.0 L 611.0 414.0 L 599.0 390.0 L 574.0 355.0 L 537.0 324.0 L 510.0 310.0 L 475.0 299.0 L 390.0 290.0 L 330.0 274.0 L 297.0 260.0 L 259.0 239.0 Z"/>
    <path d="M 361.0 52.0 L 342.0 59.0 L 332.0 66.0 L 321.0 78.0 L 314.0 91.0 L 311.0 100.0 L 310.0 122.0 L 312.0 132.0 L 318.0 146.0 L 328.0 159.0 L 341.0 169.0 L 355.0 175.0 L 364.0 177.0 L 380.0 177.0 L 395.0 173.0 L 403.0 169.0 L 414.0 161.0 L 422.0 152.0 L 426.0 146.0 L 432.0 132.0 L 434.0 123.0 L 434.0 106.0 L 430.0 91.0 L 425.0 81.0 L 420.0 74.0 L 407.0 62.0 L 394.0 55.0 L 383.0 52.0 L 375.0 52.0 L 374.0 51.0 Z"/>
  </g>
</svg>
